# xmcd CD database file
#
# Track frame offsets:
#	150
#	23700
#	45115
#
# Disc length: 912 seconds
#
# Revision: 2
# Processed by: cddbd v1.5.1PL0 Copyright (c) Steve Scherf et al.
# Submitted via: CDex 1.51
#
DISCID=13038e03
DTITLE=???? - Replay
DYEAR=1900
DGENRE=Pop
TTITLE0=Replay
TTITLE1=???
TTITLE2=REPLAY?Instrumental?
EXTD=
EXTT0=
EXTT1=
EXTT2=
PLAYORDER=
